<svg xmlns="http://www.w3.org/2000/svg" viewBox="0 0 805.28657 561.46288"><defs><style>.a{fill:#fff;}.b{fill:#FE5F00;}</style></defs><title>UKEssays Logo</title><path class="a" d="M609.00128,509.21274c81.932-181.98,133.641-234.9744,133.641-234.9744L714.12169,254.612c18.03679-.699,73.8383,4.73459,91.16488,13.009,0,0-100.71313,106.72151-165.0029,293.84188-74.36787-62.1141-213.54438-48.83469-213.54438-48.83469C524.2055,468.5959,589.2508,498.95428,609.00128,509.21274Z"/><path class="a" d="M196.30788,509.21274c-81.9321-181.98-133.74272-234.9744-133.74272-234.9744L91.08581,254.612C73.07152,253.913,17.259,259.34658,0,267.621c0,0,100.73564,106.72151,164.93541,293.84188,74.39034-62.1141,213.52155-48.83469,213.52155-48.83469C281.10358,468.5959,216.047,498.95428,196.30788,509.21274Z"/><path class="a" d="M267.77886,239.04408c-45.23859-49.8156-110.05817-67.41259-201.144-51.77685,0,0,77.20873,116.08913,101.344,163.278,41.40584,80.84986,57.7743,117.397,57.7743,117.397s72.04563-27.67537,171.05634,45.29486c0,0-60.68241-145.46689-83.18338-195.60917C302.1163,291.75654,285.89448,258.88455,267.77886,239.04408Z"/><path class="a" d="M537.41767,239.04408c45.31737-49.8156,110.08072-67.41259,201.2228-51.77685,0,0-77.27626,116.08913-101.34427,163.278-41.48463,80.84986-57.774,117.397-57.774,117.397s-72.11341-27.67537-171.1129,45.29486c0,0,60.75023-145.46689,83.14962-195.60917C503.17027,291.75654,519.40339,258.88455,537.41767,239.04408Z"/><path class="b" d="M464.53777,0H340.83913c-17.40565,109.88938-80.10587,144.937-80.10587,144.937,97.26334,132.46885,127.13693,284.98134,127.13693,284.98134l9.16467-11.521L390.54161,193.456a37.089,37.089,0,1,1,24.28214,0l-6.572,224.94133,9.24378,11.521S447.36876,277.40589,544.72243,144.937C544.72243,144.937,481.93188,109.88938,464.53777,0Z"/></svg>